<?xml version="1.0" standalone="no"?>
<!DOCTYPE svg PUBLIC "-//W3C//DTD SVG 20010904//EN"
 "http://www.w3.org/TR/2001/REC-SVG-20010904/DTD/svg10.dtd">
<svg version="1.0" xmlns="http://www.w3.org/2000/svg"
 width="270.000000pt" height="270.000000pt" viewBox="0 0 270.000000 270.000000"
 preserveAspectRatio="xMidYMid meet">
<metadata>
Created by potrace 1.14, written by Peter Selinger 2001-2017
</metadata>
<g transform="translate(0.000000,270.000000) scale(0.100000,-0.100000)"
fill="#000000" stroke="none">
<path d="M879 1923 c-6 -16 -45 -131 -89 -258 -43 -126 -100 -295 -128 -375
-91 -266 -152 -455 -152 -473 0 -16 21 -17 338 -15 l337 3 53 150 c62 176 94
271 152 455 23 74 48 149 56 165 32 70 125 356 119 365 -4 6 -127 10 -341 10
l-336 0 -9 -27z m490 -184 c-10 -33 -19 -69 -19 -80 0 -10 -4 -19 -8 -19 -9 0
-142 145 -142 154 0 3 42 6 94 6 l94 0 -19 -61z m-136 -60 c54 -61 97 -119 97
-129 0 -74 -99 -169 -177 -170 -25 0 -173 154 -198 207 -27 57 7 135 78 178
77 46 91 39 200 -86z m-233 -219 l72 -80 -107 0 -107 0 5 28 c10 49 48 142 57
137 4 -2 40 -41 80 -85z"/>
<path d="M1631 1928 c-5 -13 -25 -72 -44 -133 -28 -89 -121 -354 -210 -600 -8
-22 -12 -46 -10 -52 7 -20 291 -17 368 2 166 43 334 166 399 294 91 179 86
322 -16 417 -74 71 -163 94 -355 94 -119 0 -124 -1 -132 -22z m258 -220 c-17
-51 -46 -142 -66 -201 -19 -59 -33 -110 -31 -112 3 -3 22 8 44 25 59 46 228
160 231 157 1 -2 -12 -47 -29 -100 l-32 -97 -229 0 c-179 0 -228 3 -224 13 2
6 19 59 37 117 18 58 46 147 62 198 l30 92 118 0 119 0 -30 -92z"/>
</g>
</svg>
